<svg width="231" height="79" viewBox="0 0 231 79" fill="none" xmlns="http://www.w3.org/2000/svg">
<path d="M17.1581 63.5949C21.345 64.323 23.4384 66.6713 23.4384 70.6398C23.4384 73.1155 22.5283 75.0087 20.7079 76.3194C18.9239 77.63 16.2297 78.2854 12.6254 78.2854H0.283203V49.7782H12.2977C15.4652 49.7782 17.9409 50.4153 19.7249 51.6896C21.5452 52.9275 22.4554 54.7114 22.4554 57.0415C22.4554 58.7163 21.9821 60.118 21.0355 61.2466C20.1254 62.3388 18.8329 63.1216 17.1581 63.5949ZM2.95916 62.7757H12.1339C14.5732 62.7757 16.4482 62.3206 17.7589 61.4104C19.0695 60.4638 19.7249 59.1168 19.7249 57.3692C19.7249 55.5852 19.0695 54.2563 17.7589 53.3826C16.4846 52.4724 14.6096 52.0173 12.1339 52.0173H2.95916V62.7757ZM12.5708 76.0463C17.9955 76.0463 20.7079 74.2077 20.7079 70.5305C20.7079 68.6009 20.0889 67.181 18.8511 66.2709C17.6132 65.3607 15.6654 64.9056 13.0077 64.9056H2.95916V76.0463H12.5708Z" fill="#2D2D2D"/>
<path d="M70.2711 78.2854L70.2165 45.5731L54.2154 73.2065H52.8501L36.849 45.6824V78.2854H34.1184V40.0574H36.4667L53.5601 69.6021L70.6534 40.0574H72.9471L73.0017 78.2854H70.2711Z" fill="#2D2D2D"/>
<path d="M97.3512 76.0463C99.2079 76.0463 100.919 75.7186 102.485 75.0633C104.087 74.3715 105.415 73.3703 106.471 72.0597L108.055 73.8618C106.817 75.391 105.27 76.556 103.413 77.357C101.556 78.1215 99.5174 78.5038 97.2965 78.5038C94.4567 78.5038 91.9082 77.8849 89.6509 76.647C87.4301 75.4092 85.6825 73.698 84.4082 71.5135C83.1704 69.3291 82.5515 66.8352 82.5515 64.0318C82.5515 61.2284 83.134 58.7345 84.299 56.55C85.5005 54.3656 87.157 52.6544 89.2687 51.4165C91.3803 50.1787 93.765 49.5598 96.4228 49.5598C98.8985 49.5598 101.119 50.1423 103.085 51.3073C105.088 52.436 106.672 54.0197 107.837 56.0585C109.038 58.0609 109.693 60.3182 109.803 62.8303L85.7189 67.5269C86.4107 70.1483 87.7942 72.2235 89.8694 73.7526C91.9446 75.2817 94.4385 76.0463 97.3512 76.0463ZM96.4228 51.9627C94.2747 51.9627 92.3451 52.4724 90.6339 53.4918C88.9228 54.4748 87.5939 55.8765 86.6473 57.6969C85.7007 59.4808 85.2274 61.5197 85.2274 63.8133C85.2274 64.2138 85.2638 64.7781 85.3366 65.5063L107.072 61.2466C106.817 59.5354 106.216 57.9699 105.27 56.55C104.323 55.1301 103.085 54.0197 101.556 53.2187C100.027 52.3813 98.316 51.9627 96.4228 51.9627Z" fill="#2D2D2D"/>
<path d="M129.882 78.5038C127.115 78.5038 124.639 77.8849 122.455 76.647C120.27 75.4092 118.559 73.698 117.321 71.5135C116.084 69.2927 115.465 66.7988 115.465 64.0318C115.465 61.2284 116.084 58.7345 117.321 56.55C118.559 54.3292 120.27 52.618 122.455 51.4165C124.639 50.1787 127.115 49.5598 129.882 49.5598C132.176 49.5598 134.251 50.0149 136.108 50.925C138.001 51.7988 139.53 53.0913 140.695 54.8025L138.675 56.277C137.655 54.8571 136.381 53.8012 134.852 53.1095C133.359 52.3813 131.702 52.0173 129.882 52.0173C127.661 52.0173 125.659 52.527 123.875 53.5464C122.127 54.5294 120.744 55.9311 119.724 57.7515C118.741 59.5719 118.25 61.6653 118.25 64.0318C118.25 66.3983 118.741 68.4917 119.724 70.3121C120.744 72.1325 122.127 73.5524 123.875 74.5718C125.659 75.5548 127.661 76.0463 129.882 76.0463C131.702 76.0463 133.359 75.7004 134.852 75.0087C136.381 74.2805 137.655 73.2065 138.675 71.7866L140.695 73.2611C139.53 74.9723 138.001 76.2829 136.108 77.1931C134.251 78.0669 132.176 78.5038 129.882 78.5038Z" fill="#2D2D2D"/>
<path d="M184.255 49.5598C187.787 49.5598 190.554 50.5974 192.556 52.6726C194.595 54.7478 195.615 57.7333 195.615 61.6289V78.2854H192.884V61.8473C192.884 58.6435 192.101 56.2041 190.536 54.5294C188.97 52.8546 186.786 52.0173 183.982 52.0173C180.778 52.0173 178.23 53.0185 176.337 55.0209C174.48 57.0233 173.552 59.7175 173.552 63.1034V78.2854H170.821V61.8473C170.821 58.6435 170.038 56.2041 168.473 54.5294C166.907 52.8546 164.723 52.0173 161.919 52.0173C158.715 52.0173 156.167 53.0185 154.274 55.0209C152.417 57.0233 151.489 59.7175 151.489 63.1034V78.2854H148.758V49.7782H151.379V55.8947C152.326 53.8923 153.728 52.3449 155.584 51.2527C157.478 50.1241 159.717 49.5598 162.302 49.5598C164.887 49.5598 167.071 50.1423 168.855 51.3073C170.675 52.4724 171.968 54.1835 172.732 56.4408C173.679 54.3292 175.154 52.6544 177.156 51.4165C179.195 50.1787 181.561 49.5598 184.255 49.5598Z" fill="#2D2D2D"/>
<path d="M218.04 76.0463C219.897 76.0463 221.608 75.7186 223.174 75.0633C224.776 74.3715 226.105 73.3703 227.16 72.0597L228.744 73.8618C227.506 75.391 225.959 76.556 224.102 77.357C222.245 78.1215 220.206 78.5038 217.986 78.5038C215.146 78.5038 212.597 77.8849 210.34 76.647C208.119 75.4092 206.372 73.698 205.097 71.5135C203.859 69.3291 203.241 66.8352 203.241 64.0318C203.241 61.2284 203.823 58.7345 204.988 56.55C206.19 54.3656 207.846 52.6544 209.958 51.4165C212.069 50.1787 214.454 49.5598 217.112 49.5598C219.588 49.5598 221.808 50.1423 223.774 51.3073C225.777 52.436 227.361 54.0197 228.526 56.0585C229.727 58.0609 230.382 60.3182 230.492 62.8303L206.408 67.5269C207.1 70.1483 208.483 72.2235 210.559 73.7526C212.634 75.2817 215.128 76.0463 218.04 76.0463ZM217.112 51.9627C214.964 51.9627 213.034 52.4724 211.323 53.4918C209.612 54.4748 208.283 55.8765 207.336 57.6969C206.39 59.4808 205.917 61.5197 205.917 63.8133C205.917 64.2138 205.953 64.7781 206.026 65.5063L227.761 61.2466C227.506 59.5354 226.906 57.9699 225.959 56.55C225.012 55.1301 223.774 54.0197 222.245 53.2187C220.716 52.3813 219.005 51.9627 217.112 51.9627Z" fill="#2D2D2D"/>
<path d="M216.361 18.7614C216.361 31.6172 199.832 42.6365 199.832 42.6365C199.832 42.6365 183.303 31.6172 183.303 18.7614C183.303 14.3776 185.044 10.1734 188.144 7.07363C191.244 3.97386 195.448 2.23242 199.832 2.23242C204.215 2.23242 208.42 3.97386 211.519 7.07363C214.619 10.1734 216.361 14.3776 216.361 18.7614Z" stroke="#2D2D2D" stroke-width="2.05361" stroke-linecap="round" stroke-linejoin="round"/>
<path d="M199.85 28.1723C204.92 28.1723 209.031 23.9568 209.031 18.7566C209.031 13.5564 204.92 9.34082 199.85 9.34082C194.78 9.34082 190.67 13.5564 190.67 18.7566C190.67 23.9568 194.78 28.1723 199.85 28.1723Z" stroke="#2D2D2D" stroke-width="2.05361" stroke-linecap="round" stroke-linejoin="round"/>
</svg>
