<svg width="443" height="181" viewBox="0 0 443 181" fill="none" xmlns="http://www.w3.org/2000/svg">
<path d="M45.4 128.5C52.2667 130.233 55.7 134.533 55.7 141.4C55.7 146.067 53.9333 149.667 50.4 152.2C46.9333 154.733 41.7333 156 34.8 156H9.3V103H33.9C40.1667 103 45.0667 104.2 48.6 106.6C52.1333 108.933 53.9 112.267 53.9 116.6C53.9 119.4 53.1333 121.833 51.6 123.9C50.1333 125.9 48.0667 127.433 45.4 128.5ZM18.7 125.8H33.1C36.7667 125.8 39.5333 125.133 41.4 123.8C43.3333 122.467 44.3 120.533 44.3 118C44.3 112.933 40.5667 110.4 33.1 110.4H18.7V125.8ZM34.1 148.6C38.1 148.6 41.1 147.967 43.1 146.7C45.1 145.433 46.1 143.467 46.1 140.8C46.1 138.067 45.1667 136.033 43.3 134.7C41.5 133.367 38.6333 132.7 34.7 132.7H18.7V148.6H34.1ZM137.226 156L137.126 105L111.826 147.5H107.226L81.9258 105.3V156H72.3258V86H80.5258L109.726 135.2L138.526 86H146.726L146.826 156H137.226ZM190.715 148.2C197.048 148.2 202.148 146.067 206.015 141.8L211.215 148C208.882 150.8 205.915 152.933 202.315 154.4C198.782 155.867 194.815 156.6 190.415 156.6C184.815 156.6 179.848 155.467 175.515 153.2C171.182 150.867 167.815 147.633 165.415 143.5C163.082 139.367 161.915 134.7 161.915 129.5C161.915 124.367 163.048 119.733 165.315 115.6C167.648 111.467 170.815 108.267 174.815 106C178.882 103.667 183.448 102.5 188.515 102.5C193.315 102.5 197.682 103.6 201.615 105.8C205.548 107.933 208.682 110.967 211.015 114.9C213.348 118.833 214.548 123.367 214.615 128.5L172.515 136.7C173.848 140.367 176.082 143.2 179.215 145.2C182.415 147.2 186.248 148.2 190.715 148.2ZM188.515 110.6C185.182 110.6 182.182 111.367 179.515 112.9C176.915 114.433 174.882 116.6 173.415 119.4C171.948 122.133 171.215 125.333 171.215 129V130L205.115 123.6C204.248 119.733 202.315 116.6 199.315 114.2C196.315 111.8 192.715 110.6 188.515 110.6ZM251.345 156.6C245.945 156.6 241.112 155.433 236.845 153.1C232.645 150.767 229.345 147.567 226.945 143.5C224.545 139.367 223.345 134.7 223.345 129.5C223.345 124.3 224.545 119.667 226.945 115.6C229.345 111.467 232.645 108.267 236.845 106C241.112 103.667 245.945 102.5 251.345 102.5C256.145 102.5 260.412 103.467 264.145 105.4C267.945 107.333 270.879 110.133 272.945 113.8L265.645 118.5C263.979 115.967 261.912 114.067 259.445 112.8C256.979 111.533 254.245 110.9 251.245 110.9C247.779 110.9 244.645 111.667 241.845 113.2C239.112 114.733 236.945 116.933 235.345 119.8C233.812 122.6 233.045 125.833 233.045 129.5C233.045 133.233 233.812 136.533 235.345 139.4C236.945 142.2 239.112 144.367 241.845 145.9C244.645 147.433 247.779 148.2 251.245 148.2C254.245 148.2 256.979 147.567 259.445 146.3C261.912 145.033 263.979 143.133 265.645 140.6L272.945 145.2C270.879 148.867 267.945 151.7 264.145 153.7C260.412 155.633 256.145 156.6 251.345 156.6ZM351.674 102.5C358.341 102.5 363.608 104.433 367.474 108.3C371.408 112.167 373.374 117.9 373.374 125.5V156H363.774V126.6C363.774 121.467 362.574 117.6 360.174 115C357.841 112.4 354.474 111.1 350.074 111.1C345.208 111.1 341.341 112.633 338.474 115.7C335.608 118.7 334.174 123.033 334.174 128.7V156H324.574V126.6C324.574 121.467 323.374 117.6 320.974 115C318.641 112.4 315.274 111.1 310.874 111.1C306.008 111.1 302.141 112.633 299.274 115.7C296.408 118.7 294.974 123.033 294.974 128.7V156H285.374V103H294.574V110.9C296.508 108.167 299.041 106.1 302.174 104.7C305.308 103.233 308.874 102.5 312.874 102.5C317.008 102.5 320.674 103.333 323.874 105C327.074 106.667 329.541 109.1 331.274 112.3C333.274 109.233 336.041 106.833 339.574 105.1C343.174 103.367 347.208 102.5 351.674 102.5ZM414.152 148.2C420.486 148.2 425.586 146.067 429.452 141.8L434.652 148C432.319 150.8 429.352 152.933 425.752 154.4C422.219 155.867 418.252 156.6 413.852 156.6C408.252 156.6 403.286 155.467 398.952 153.2C394.619 150.867 391.252 147.633 388.852 143.5C386.519 139.367 385.352 134.7 385.352 129.5C385.352 124.367 386.486 119.733 388.752 115.6C391.086 111.467 394.252 108.267 398.252 106C402.319 103.667 406.886 102.5 411.952 102.5C416.752 102.5 421.119 103.6 425.052 105.8C428.986 107.933 432.119 110.967 434.452 114.9C436.786 118.833 437.986 123.367 438.052 128.5L395.952 136.7C397.286 140.367 399.519 143.2 402.652 145.2C405.852 147.2 409.686 148.2 414.152 148.2ZM411.952 110.6C408.619 110.6 405.619 111.367 402.952 112.9C400.352 114.433 398.319 116.6 396.852 119.4C395.386 122.133 394.652 125.333 394.652 129V130L428.552 123.6C427.686 119.733 425.752 116.6 422.752 114.2C419.752 111.8 416.152 110.6 411.952 110.6Z" fill="#2D2D2D"/>
<path d="M417.25 39.1665C417.25 66.5832 382 90.0832 382 90.0832C382 90.0832 346.75 66.5832 346.75 39.1665C346.75 29.8176 350.464 20.8516 357.074 14.241C363.685 7.63033 372.651 3.9165 382 3.9165C391.349 3.9165 400.315 7.63033 406.926 14.241C413.536 20.8516 417.25 29.8176 417.25 39.1665Z" stroke="#F4B540" stroke-width="5.45799" stroke-linecap="round" stroke-linejoin="round"/>
<path d="M382.039 59.2372C392.852 59.2372 401.617 50.247 401.617 39.1569C401.617 28.0669 392.852 19.0767 382.039 19.0767C371.226 19.0767 362.46 28.0669 362.46 39.1569C362.46 50.247 371.226 59.2372 382.039 59.2372Z" stroke="#F4B540" stroke-width="5.45799" stroke-linecap="round" stroke-linejoin="round"/>
</svg>
