<svg width="288" height="61" viewBox="0 0 288 61" fill="none" xmlns="http://www.w3.org/2000/svg">
<path d="M28.3595 0.597168V51.6419C28.3595 53.373 26.9562 54.7763 25.2251 54.7763V54.7763C23.4941 54.7763 22.0908 56.1796 22.0908 57.9106V59.4778" stroke="#2D2D2D" stroke-width="5.93814"/>
<path d="M28.3595 0.597168V51.6419C28.3595 53.373 26.9562 54.7763 25.2251 54.7763V54.7763C23.4941 54.7763 22.0908 56.1796 22.0908 57.9106V59.4778" stroke="#F4B540" stroke-width="2.96907"/>
<path d="M50.4492 0.895612L50.4492 3.11134C50.4492 5.84429 48.2337 8.05979 45.5008 8.05979L8.78402 8.05979C6.85991 8.05979 5.30011 9.61958 5.30011 11.5437V11.5437C5.30011 13.4678 3.74032 15.0276 1.81621 15.0276H0.59862" stroke="#2D2D2D" stroke-width="5.93814"/>
<path d="M50.4492 0.895612L50.4492 3.11134C50.4492 5.84429 48.2337 8.05979 45.5008 8.05979L8.78402 8.05979C6.85991 8.05979 5.30011 9.61958 5.30011 11.5437V11.5437C5.30011 13.4678 3.74032 15.0276 1.81621 15.0276H0.59862" stroke="#F4B540" stroke-width="2.96907"/>
<path d="M7.5041 59.0297L7.49304 45.6392C7.49079 42.9155 9.68994 40.7021 12.4135 40.6867L50.157 40.4735C52.2614 40.4616 53.9605 38.7514 53.9588 36.647V36.647C53.957 34.5328 55.6715 32.8185 57.7858 32.8205L59.4564 32.8221" stroke="#2D2D2D" stroke-width="5.93814"/>
<path d="M7.5041 59.0297L7.49304 45.6392C7.49079 42.9155 9.68994 40.7021 12.4135 40.6867L50.157 40.4735C52.2614 40.4616 53.9605 38.7514 53.9588 36.647V36.647C53.957 34.5328 55.6715 32.8185 57.7858 32.8205L59.4564 32.8221" stroke="#F4B540" stroke-width="2.96907"/>
<path d="M0.595703 28.499L3.41238 28.499L43.5833 28.2643C46.3276 28.2483 48.5607 30.4684 48.5607 33.2127L48.5607 48.41C48.5607 51.1429 50.7762 53.3584 53.5092 53.3584L59.327 53.3584" stroke="#2D2D2D" stroke-width="5.93814"/>
<path d="M0.595703 28.499L3.41238 28.499L43.5833 28.2643C46.3276 28.2483 48.5607 30.4684 48.5607 33.2127L48.5607 48.41C48.5607 51.1429 50.7762 53.3584 53.5092 53.3584L59.327 53.3584" stroke="#F4B540" stroke-width="2.96907"/>
<path d="M59.5516 19.6268L50.0224 19.6268C47.2894 19.6268 45.0739 17.4112 45.0739 14.6782L45.074 13.4328L45.074 0.970065" stroke="#2D2D2D" stroke-width="5.93814"/>
<path d="M59.5516 19.6268L50.0224 19.6268C47.2894 19.6268 45.0739 17.4112 45.0739 14.6782L45.074 13.4328L45.074 0.970065" stroke="#F4B540" stroke-width="2.96907"/>
<path d="M0.624922 49.8598L36.3312 49.9741C39.0585 49.9828 41.2646 52.1966 41.2639 54.9239L41.2627 59.1045" stroke="#2D2D2D" stroke-width="5.93814"/>
<path d="M0.624922 49.8598L36.3312 49.9741C39.0585 49.9828 41.2646 52.1966 41.2639 54.9239L41.2627 59.1045" stroke="#F4B540" stroke-width="2.96907"/>
<circle cx="30.0008" cy="30" r="15.7012" fill="#FBFBFB" stroke="#2D2D2D" stroke-width="1.73196"/>
<path d="M33.9632 35.18L33.9662 35.1756C34.6164 34.2329 35.4703 32.8851 36.1581 31.4721C36.8583 30.0335 37.3311 28.6372 37.3313 27.564L33.9632 35.18ZM33.9632 35.18C33.5718 35.7551 32.7226 36.9686 31.8308 38.0311C31.3828 38.5648 30.944 39.0364 30.5616 39.3671C30.3701 39.5327 30.2127 39.6454 30.0923 39.7127C30.0504 39.7361 30.0196 39.7503 29.999 39.7587C29.9781 39.7503 29.9465 39.7359 29.9034 39.7119C29.7823 39.6446 29.6244 39.5318 29.4324 39.3663C29.049 39.0357 28.6096 38.5643 28.1612 38.0307C27.2697 36.9698 26.4217 35.7584 26.0295 35.1823C25.3923 34.2329 24.5404 32.8854 23.8503 31.4727C23.1468 30.0325 22.6689 28.6373 22.6687 27.5635C22.6709 25.6197 23.4441 23.7561 24.8186 22.3816C26.193 21.0072 28.0564 20.234 30 20.2317M33.9632 35.18L30 20.2317M30 20.2317C31.9437 20.234 33.8071 21.0072 35.1815 22.3816C36.5561 23.7562 37.3292 25.6199 37.3313 27.5639L30 20.2317Z" stroke="#2D2D2D" stroke-width="1.73196"/>
<path d="M28.6565 25.4924C29.0684 25.2172 29.5527 25.0702 30.0481 25.0701C30.7126 25.0711 31.3496 25.3355 31.8194 25.8054C32.2893 26.2753 32.5537 26.9123 32.5547 27.5768C32.5546 28.0722 32.4076 28.5564 32.1324 28.9683C31.857 29.3804 31.4656 29.7016 31.0077 29.8913C30.5498 30.081 30.0459 30.1306 29.5598 30.0339C29.0737 29.9372 28.6272 29.6985 28.2767 29.3481C27.9263 28.9976 27.6876 28.5511 27.5909 28.065C27.4942 27.5789 27.5438 27.075 27.7335 26.6171C27.9232 26.1592 28.2444 25.7678 28.6565 25.4924Z" stroke="#2D2D2D" stroke-width="1.73196"/>
<rect x="0.865979" y="0.865979" width="58.268" height="58.268" rx="9.03093" stroke="#2D2D2D" stroke-width="1.73196"/>
<path d="M89.8 34.4C93.3667 35.2333 95.15 37.3833 95.15 40.85C95.15 43.15 94.3 44.9167 92.6 46.15C90.9 47.3833 88.3667 48 85 48H73.05V21.7H84.65C87.65 21.7 90 22.2833 91.7 23.45C93.4 24.6167 94.25 26.2833 94.25 28.45C94.25 29.8833 93.85 31.1167 93.05 32.15C92.2833 33.15 91.2 33.9 89.8 34.4ZM76.5 33.4H84.4C86.4333 33.4 87.9833 33.0167 89.05 32.25C90.15 31.4833 90.7 30.3667 90.7 28.9C90.7 27.4333 90.15 26.3333 89.05 25.6C87.9833 24.8667 86.4333 24.5 84.4 24.5H76.5V33.4ZM84.85 45.2C87.1167 45.2 88.8167 44.8333 89.95 44.1C91.0833 43.3667 91.65 42.2167 91.65 40.65C91.65 39.0833 91.1333 37.9333 90.1 37.2C89.0667 36.4333 87.4333 36.05 85.2 36.05H76.5V45.2H84.85ZM140.67 13V48H137.12V20L123.37 43.55H121.62L107.87 20.15V48H104.32V13H107.37L122.57 38.95L137.62 13H140.67ZM162.764 45.1C164.398 45.1 165.898 44.8167 167.264 44.25C168.664 43.65 169.848 42.7833 170.814 41.65L172.814 43.95C171.648 45.35 170.198 46.4167 168.464 47.15C166.731 47.8833 164.814 48.25 162.714 48.25C160.014 48.25 157.614 47.6833 155.514 46.55C153.414 45.3833 151.781 43.7833 150.614 41.75C149.448 39.7167 148.864 37.4167 148.864 34.85C148.864 32.2833 149.414 29.9833 150.514 27.95C151.648 25.9167 153.198 24.3333 155.164 23.2C157.131 22.0667 159.364 21.5 161.864 21.5C164.198 21.5 166.298 22.0333 168.164 23.1C170.064 24.1667 171.564 25.65 172.664 27.55C173.798 29.45 174.398 31.6167 174.464 34.05L152.864 38.25C153.531 40.3833 154.731 42.0667 156.464 43.3C158.231 44.5 160.331 45.1 162.764 45.1ZM161.864 24.55C160.031 24.55 158.381 24.9833 156.914 25.85C155.481 26.6833 154.348 27.8667 153.514 29.4C152.714 30.9 152.314 32.6333 152.314 34.6C152.314 35.1 152.331 35.4667 152.364 35.7L170.914 32.1C170.514 29.9 169.498 28.1 167.864 26.7C166.231 25.2667 164.231 24.55 161.864 24.55ZM192.79 48.25C190.19 48.25 187.857 47.6833 185.79 46.55C183.757 45.4167 182.157 43.8333 180.99 41.8C179.824 39.7333 179.24 37.4167 179.24 34.85C179.24 32.2833 179.824 29.9833 180.99 27.95C182.157 25.9167 183.757 24.3333 185.79 23.2C187.857 22.0667 190.19 21.5 192.79 21.5C195.057 21.5 197.074 21.95 198.84 22.85C200.64 23.7167 202.057 25 203.09 26.7L200.44 28.5C199.574 27.2 198.474 26.2333 197.14 25.6C195.807 24.9333 194.357 24.6 192.79 24.6C190.89 24.6 189.174 25.0333 187.64 25.9C186.14 26.7333 184.957 27.9333 184.09 29.5C183.257 31.0667 182.84 32.85 182.84 34.85C182.84 36.8833 183.257 38.6833 184.09 40.25C184.957 41.7833 186.14 42.9833 187.64 43.85C189.174 44.6833 190.89 45.1 192.79 45.1C194.357 45.1 195.807 44.7833 197.14 44.15C198.474 43.5167 199.574 42.55 200.44 41.25L203.09 43.05C202.057 44.75 200.64 46.05 198.84 46.95C197.04 47.8167 195.024 48.25 192.79 48.25ZM242.764 21.5C246.064 21.5 248.647 22.45 250.514 24.35C252.414 26.25 253.364 29.05 253.364 32.75V48H249.814V33.1C249.814 30.3667 249.147 28.2833 247.814 26.85C246.514 25.4167 244.664 24.7 242.264 24.7C239.531 24.7 237.381 25.55 235.814 27.25C234.247 28.9167 233.464 31.2333 233.464 34.2V48H229.914V33.1C229.914 30.3667 229.247 28.2833 227.914 26.85C226.614 25.4167 224.747 24.7 222.314 24.7C219.614 24.7 217.464 25.55 215.864 27.25C214.297 28.9167 213.514 31.2333 213.514 34.2V48H209.964V21.7H213.364V26.5C214.297 24.9 215.597 23.6667 217.264 22.8C218.931 21.9333 220.847 21.5 223.014 21.5C225.214 21.5 227.114 21.9667 228.714 22.9C230.347 23.8333 231.564 25.2167 232.364 27.05C233.331 25.3167 234.714 23.9667 236.514 23C238.347 22 240.431 21.5 242.764 21.5ZM273.8 45.1C275.433 45.1 276.933 44.8167 278.3 44.25C279.7 43.65 280.883 42.7833 281.85 41.65L283.85 43.95C282.683 45.35 281.233 46.4167 279.5 47.15C277.766 47.8833 275.85 48.25 273.75 48.25C271.05 48.25 268.65 47.6833 266.55 46.55C264.45 45.3833 262.816 43.7833 261.65 41.75C260.483 39.7167 259.9 37.4167 259.9 34.85C259.9 32.2833 260.45 29.9833 261.55 27.95C262.683 25.9167 264.233 24.3333 266.2 23.2C268.166 22.0667 270.4 21.5 272.9 21.5C275.233 21.5 277.333 22.0333 279.2 23.1C281.1 24.1667 282.6 25.65 283.7 27.55C284.833 29.45 285.433 31.6167 285.5 34.05L263.9 38.25C264.566 40.3833 265.766 42.0667 267.5 43.3C269.266 44.5 271.366 45.1 273.8 45.1ZM272.9 24.55C271.066 24.55 269.416 24.9833 267.95 25.85C266.516 26.6833 265.383 27.8667 264.55 29.4C263.75 30.9 263.35 32.6333 263.35 34.6C263.35 35.1 263.366 35.4667 263.4 35.7L281.95 32.1C281.55 29.9 280.533 28.1 278.9 26.7C277.266 25.2667 275.266 24.55 272.9 24.55Z" fill="#2D2D2D"/>
</svg>
