<svg width="11" height="17" viewBox="0 0 11 17" fill="none" xmlns="http://www.w3.org/2000/svg">
<path d="M6.125 3.125C6.95 3.125 7.625 2.45 7.625 1.625C7.625 0.8 6.95 0.125 6.125 0.125C5.3 0.125 4.625 0.8 4.625 1.625C4.625 2.45 5.3 3.125 6.125 3.125ZM3.35 5.675L1.43 15.3575C1.3325 15.815 1.6925 16.25 2.165 16.25H2.225C2.5775 16.25 2.8775 16.01 2.96 15.665L4.175 10.25L5.75 11.75V15.5C5.75 15.9125 6.0875 16.25 6.5 16.25C6.9125 16.25 7.25 15.9125 7.25 15.5V11.27C7.25 10.8575 7.085 10.4675 6.785 10.1825L5.675 9.125L6.125 6.875C6.9275 7.805 8.09 8.4725 9.395 8.6825C9.845 8.75 10.25 8.39 10.25 7.9325C10.25 7.565 9.98 7.2575 9.6125 7.1975C8.4725 7.01 7.5275 6.335 7.025 5.45L6.275 4.25C5.855 3.5825 5.015 3.3125 4.2875 3.62L1.415 4.835C0.86 5.075 0.5 5.615 0.5 6.2225V8C0.5 8.4125 0.8375 8.75 1.25 8.75C1.6625 8.75 2 8.4125 2 8V6.2L3.35 5.675Z" fill="#2D2D2D"/>
</svg>
