<svg width="33" height="31" viewBox="0 0 33 31" fill="none" xmlns="http://www.w3.org/2000/svg">
<g clip-path="url(#clip0_404_713)">
<path d="M28.8336 12.8817C28.8336 21.899 16.4761 29.6281 16.4761 29.6281C16.4761 29.6281 4.11865 21.899 4.11865 12.8817C4.11865 9.80692 5.4206 6.85802 7.73807 4.68379C10.0556 2.50956 13.1987 1.28809 16.4761 1.28809C19.7535 1.28809 22.8967 2.50956 25.2142 4.68379C27.5317 6.85802 28.8336 9.80692 28.8336 12.8817Z" stroke="#2D2D2D" stroke-width="1.74393" stroke-linecap="round" stroke-linejoin="round"/>
<path d="M16.4761 16.7462C18.751 16.7462 20.5953 15.016 20.5953 12.8816C20.5953 10.7473 18.751 9.01709 16.4761 9.01709C14.2011 9.01709 12.3569 10.7473 12.3569 12.8816C12.3569 15.016 14.2011 16.7462 16.4761 16.7462Z" stroke="#2D2D2D" stroke-width="1.74393" stroke-linecap="round" stroke-linejoin="round"/>
</g>
<defs>
<clipPath id="clip0_404_713">
<rect width="32.9533" height="30.9164" fill="white"/>
</clipPath>
</defs>
</svg>
