<svg width="1440" height="1024" viewBox="0 0 1440 1024" fill="none" xmlns="http://www.w3.org/2000/svg">
<path d="M107 -1.5V302.5C107 313.546 115.954 322.5 127 322.5H169.25C180.296 322.5 189.25 313.546 189.25 302.5V238C189.25 226.954 198.204 218 209.25 218H857C868.046 218 877 209.046 877 198V95.5C877 84.4543 885.954 75.5 897 75.5H1270C1281.05 75.5 1290 84.4543 1290 95.5V324.5C1290 335.546 1298.95 344.5 1310 344.5H1441" stroke="#2D2D2D" stroke-width="20"/>
<path d="M107 -1.5V302.5C107 313.546 115.954 322.5 127 322.5H169.25C180.296 322.5 189.25 313.546 189.25 302.5V238C189.25 226.954 198.204 218 209.25 218H857C868.046 218 877 209.046 877 198V95.5C877 84.4543 885.954 75.5 897 75.5H1270C1281.05 75.5 1290 84.4543 1290 95.5V324.5C1290 335.546 1298.95 344.5 1310 344.5H1441" stroke="#F4B540" stroke-width="10"/>
<path d="M117.5 1058V939.5V582.5V552C117.5 540.954 126.454 532 137.5 532H248.5H730.5C741.546 532 750.5 540.954 750.5 552V892C750.5 903.046 759.454 912 770.5 912H1230.5C1241.55 912 1250.5 920.954 1250.5 932V1058" stroke="#2D2D2D" stroke-width="20"/>
<path d="M117.5 1058V939.5V582.5V552C117.5 540.954 126.454 532 137.5 532H248.5H730.5C741.546 532 750.5 540.954 750.5 552V892C750.5 903.046 759.454 912 770.5 912H1230.5C1241.55 912 1250.5 920.954 1250.5 932V1058" stroke="#F4B540" stroke-width="10"/>
<path d="M-35 465H35.5C46.5457 465 55.5 473.954 55.5 485V849C55.5 860.046 64.4543 869 75.5 869H209.5C220.546 869 229.5 860.046 229.5 849V428.5C229.5 417.454 238.454 408.5 249.5 408.5H542.5C553.546 408.5 562.5 417.454 562.5 428.5V703C562.5 714.046 571.454 723 582.5 723H1342.5C1353.55 723 1362.5 714.046 1362.5 703V168C1362.5 156.954 1371.45 148 1382.5 148H1464" stroke="#2D2D2D" stroke-width="20"/>
<path d="M-35 465H35.5C46.5457 465 55.5 473.954 55.5 485V849C55.5 860.046 64.4543 869 75.5 869H209.5C220.546 869 229.5 860.046 229.5 849V428.5C229.5 417.454 238.454 408.5 249.5 408.5H542.5C553.546 408.5 562.5 417.454 562.5 428.5V703C562.5 714.046 571.454 723 582.5 723H1342.5C1353.55 723 1362.5 714.046 1362.5 703V168C1362.5 156.954 1371.45 148 1382.5 148H1464" stroke="#F4B540" stroke-width="10"/>
<path d="M-137.5 131H24H311.5C322.546 131 331.5 122.046 331.5 111V-43C331.5 -54.0457 340.454 -63 351.5 -63H1183C1194.05 -63 1203 -54.0457 1203 -43V494V837C1203 848.046 1211.95 857 1223 857H1367.5C1378.55 857 1387.5 865.954 1387.5 877V1026.5" stroke="#2D2D2D" stroke-width="20"/>
<path d="M-137.5 131H24H311.5C322.546 131 331.5 122.046 331.5 111V-43C331.5 -54.0457 340.454 -63 351.5 -63H1183C1194.05 -63 1203 -54.0457 1203 -43V494V837C1203 848.046 1211.95 857 1223 857H1367.5C1378.55 857 1387.5 865.954 1387.5 877V1026.5" stroke="#F4B540" stroke-width="10"/>
</svg>
